<?xml version="1.0" encoding="utf-8"?>
<!-- Generator: Adobe Illustrator 24.0.0, SVG Export Plug-In . SVG Version: 6.00 Build 0)  -->
<svg version="1.1" xmlns="http://www.w3.org/2000/svg" xmlns:xlink="http://www.w3.org/1999/xlink" x="0px" y="0px"
	 viewBox="0 0 547 283" style="enable-background:new 0 0 547 283;" xml:space="preserve">
<style type="text/css">
	.st0{fill:#F9413B;}
	.st1{display:none;}
	.st2{display:inline;fill:#F9413B;}
</style>
<g id="Layer_1">
	<g>
		<g>
			<path class="st0" d="M90.6,194.4l-36-43.7l-7.2,7.5v36.2h-35V8.4h35v113l32-34.7h42.7l-43.7,45l53.2,62.7H90.6z"/>
			<path class="st0" d="M130.3,194.4V86.6h32.2v107.7H130.3z"/>
			<path class="st0" d="M261.3,181.6c-10.2,10-24.5,16.2-40,16.2c-31.5,0-57-25.5-57-57.2c0-31.5,25.5-57.2,57-57.2
				c15.5,0,29.7,6.2,40,16.2V8.4h29.5v185.9h-29.5V181.6z M205.5,161.4c5.2,5.5,12.2,8.5,19.7,8.5c7.5,0,14.7-3,20-8.5
				s8.2-13,8.2-20.7s-3-15-8.2-20.7c-5.2-5.5-12.5-8.5-20-8.5c-7.5,0-14.5,3-19.7,8.5c-5.2,5.7-8.2,13-8.2,20.7
				S200.3,155.9,205.5,161.4z"/>
			<path class="st0" d="M343.2,194.4L289.5,86.6h31l27.5,55.2l27.2-55.2h31l-53.7,107.7H343.2z"/>
			<path class="st0" d="M453.7,187.6l-52.5-101h36l35.5,59.7l33-59.7h35l-96.7,185.9h-35L453.7,187.6z"/>
		</g>
		<circle class="st0" cx="146" cy="65.1" r="16"/>
	</g>
</g>
<g id="Layer_2" class="st1">
	<polygon class="st2" points="532.3,-233.2 425.1,-138 148,-138 148,-156 418.2,-156 520.4,-246.6 	"/>
	<polygon class="st2" points="55.7,514.2 162.9,419 440,419 440,437 169.8,437 67.6,527.6 	"/>
	<polygon class="st2" points="-97.2,-84.3 -2,22.9 -2,300 -20,300 -20,29.8 -110.6,-72.4 	"/>
</g>
</svg>
